<?xml version="1.0" standalone="no"?>
<!DOCTYPE svg PUBLIC "-//W3C//DTD SVG 20010904//EN"
 "http://www.w3.org/TR/2001/REC-SVG-20010904/DTD/svg10.dtd">
<svg version="1.0" xmlns="http://www.w3.org/2000/svg"
 width="198.000000pt" height="198.000000pt" viewBox="0 0 198.000000 198.000000"
 preserveAspectRatio="xMidYMid meet">
<metadata>
Created by potrace 1.14, written by Peter Selinger 2001-2017
</metadata>
<g transform="translate(0.000000,198.000000) scale(0.100000,-0.100000)"
fill="#000000" stroke="none">
<path d="M887 1813 c-3 -2 -21 -4 -41 -5 -20 -1 -39 -5 -42 -9 -2 -4 -13 -6
-24 -4 -11 2 -20 0 -20 -5 0 -5 -12 -7 -26 -4 -16 3 -23 1 -19 -6 3 -5 -2 -10
-12 -10 -11 0 -24 -5 -31 -12 -7 -7 -12 -8 -12 -2 0 5 -4 4 -8 -1 -4 -6 -39
-29 -78 -52 -359 -211 -503 -670 -329 -1050 220 -481 824 -632 1250 -313 212
159 330 408 320 675 -2 61 -5 117 -8 125 -2 8 -7 33 -12 54 -34 168 -179 377
-334 484 -73 50 -218 109 -313 127 -64 12 -252 18 -261 8z"/>
</g>
</svg>
